# xmcd
#
# Track frame offsets:
#	150
#	19073
#	37579
#	59574
#	74647
#	97453
#	128921
#	143003
#	162183
#	181980
#	197806
#	215616
#	232261
#	252362
#	274430
#	290232
#	309169
#	324113
#
# Disc length: 4508 seconds
#
# Revision: 1
# Processed by: cddbd v1.5.1PL2 Copyright (c) Steve Scherf et al.
# Submitted via: audiograbber 1.83.01
#
DISCID=1b119a12
DTITLE=Barry White - Greatest Hits
DYEAR=1900
DGENRE=Soul
TTITLE0=Never, Never Gonna Give Ya Up
TTITLE1=Love's Theme
TTITLE2=Sexy Undercover
TTITLE3=Oh, What a Night for Dancing
TTITLE4=I Only Want To Be With You
TTITLE5=It's Extasy When You Lay Down Next To Me
TTITLE6=I've Got So Much To Give
TTITLE7=Just The Way You Are
TTITLE8=Baby We Better Try And Get It Together
TTITLE9=You're the First, the Last, My Everything
TTITLE10=Can't Get Enough Of Your Love Baby
TTITLE11=Playing Your Game, Baby
TTITLE12=It May Be Winter Outside
TTITLE13=Beware!
TTITLE14=You See The Trouble With Me
TTITLE15=Satin Soul
TTITLE16=Don't Make Me Wait Too Long
TTITLE17=Change
EXTD=
EXTT0=
EXTT1=
EXTT2=
EXTT3=
EXTT4=
EXTT5=
EXTT6=
EXTT7=
EXTT8=
EXTT9=
EXTT10=
EXTT11=
EXTT12=
EXTT13=
EXTT14=
EXTT15=
EXTT16=
EXTT17=
PLAYORDER=
